<?xml version="1.0"?>
<!-- Generated by SVGo and Plotinum VG -->
<svg width="437.25pt" height="393.38pt" viewBox="0 0 437.25 393.38"
	xmlns="http://www.w3.org/2000/svg"
	xmlns:xlink="http://www.w3.org/1999/xlink">
<g transform="scale(1, -1) translate(0, -393.38)">
<text x="109.8" y="-381.86" transform="scale(1, -1)"
	style="font-family:Helvetica;font-weight:normal;font-style:normal;font-size:12px">Cluster Plot of: NounProbeTrlLog Gestalt</text>
<text x="222.84" y="-3.8789" transform="scale(1, -1)"
	style="font-family:Helvetica;font-weight:normal;font-style:normal;font-size:12px">X</text>
<text x="40.325" y="-15.599" transform="scale(1, -1)"
	style="font-family:Helvetica;font-weight:normal;font-style:normal;font-size:10px">0</text>
<text x="143.52" y="-15.599" transform="scale(1, -1)"
	style="font-family:Helvetica;font-weight:normal;font-style:normal;font-size:10px">10</text>
<text x="249.5" y="-15.599" transform="scale(1, -1)"
	style="font-family:Helvetica;font-weight:normal;font-style:normal;font-size:10px">20</text>
<text x="355.48" y="-15.599" transform="scale(1, -1)"
	style="font-family:Helvetica;font-weight:normal;font-style:normal;font-size:10px">30</text>
<path d="M43.105,25.198L43.105,33.198" style="fill:none;stroke:#000000;stroke-width:0.5" />
<path d="M149.08,25.198L149.08,33.198" style="fill:none;stroke:#000000;stroke-width:0.5" />
<path d="M255.06,25.198L255.06,33.198" style="fill:none;stroke:#000000;stroke-width:0.5" />
<path d="M361.04,25.198L361.04,33.198" style="fill:none;stroke:#000000;stroke-width:0.5" />
<path d="M64.301,29.198L64.301,33.198" style="fill:none;stroke:#000000;stroke-width:0.5" />
<path d="M85.497,29.198L85.497,33.198" style="fill:none;stroke:#000000;stroke-width:0.5" />
<path d="M106.69,29.198L106.69,33.198" style="fill:none;stroke:#000000;stroke-width:0.5" />
<path d="M127.89,29.198L127.89,33.198" style="fill:none;stroke:#000000;stroke-width:0.5" />
<path d="M170.28,29.198L170.28,33.198" style="fill:none;stroke:#000000;stroke-width:0.5" />
<path d="M191.47,29.198L191.47,33.198" style="fill:none;stroke:#000000;stroke-width:0.5" />
<path d="M212.67,29.198L212.67,33.198" style="fill:none;stroke:#000000;stroke-width:0.5" />
<path d="M233.87,29.198L233.87,33.198" style="fill:none;stroke:#000000;stroke-width:0.5" />
<path d="M276.26,29.198L276.26,33.198" style="fill:none;stroke:#000000;stroke-width:0.5" />
<path d="M297.45,29.198L297.45,33.198" style="fill:none;stroke:#000000;stroke-width:0.5" />
<path d="M318.65,29.198L318.65,33.198" style="fill:none;stroke:#000000;stroke-width:0.5" />
<path d="M339.84,29.198L339.84,33.198" style="fill:none;stroke:#000000;stroke-width:0.5" />
<path d="M382.24,29.198L382.24,33.198" style="fill:none;stroke:#000000;stroke-width:0.5" />
<path d="M403.43,29.198L403.43,33.198" style="fill:none;stroke:#000000;stroke-width:0.5" />
<path d="M43.105,33.198L410.58,33.198" style="fill:none;stroke:#000000;stroke-width:0.5" />
<g transform="rotate(90)">
<text x="199.3" y="11.52" transform="scale(1, -1)"
	style="font-family:Helvetica;font-weight:normal;font-style:normal;font-size:12px">Y</text>
</g>
<text x="20.96" y="-33.749" transform="scale(1, -1)"
	style="font-family:Helvetica;font-weight:normal;font-style:normal;font-size:10px">0</text>
<text x="15.398" y="-166.97" transform="scale(1, -1)"
	style="font-family:Helvetica;font-weight:normal;font-style:normal;font-size:10px">20</text>
<text x="15.398" y="-300.18" transform="scale(1, -1)"
	style="font-family:Helvetica;font-weight:normal;font-style:normal;font-size:10px">40</text>
<path d="M29.3,38.448L37.3,38.448" style="fill:none;stroke:#000000;stroke-width:0.5" />
<path d="M29.3,171.67L37.3,171.67" style="fill:none;stroke:#000000;stroke-width:0.5" />
<path d="M29.3,304.88L37.3,304.88" style="fill:none;stroke:#000000;stroke-width:0.5" />
<path d="M33.3,105.06L37.3,105.06" style="fill:none;stroke:#000000;stroke-width:0.5" />
<path d="M33.3,238.27L37.3,238.27" style="fill:none;stroke:#000000;stroke-width:0.5" />
<path d="M37.3,38.448L37.3,368.16" style="fill:none;stroke:#000000;stroke-width:0.5" />
<path d="M43.105,282.74L43.105,282.74L43.105,208.87L89.332,208.87L89.332,157.82L134.51,157.82L134.51,121.5L178.04,121.5L178.04,85.491L221.52,85.491L221.52,58.015L263.72,58.015L263.72,45.109L303.51,45.109L303.51,41.779L341.87,41.779L341.87,41.779" style="fill:none;stroke:#000000" />
<text x="341.87" y="-41.964" transform="scale(1, -1)"
	style="font-family:Times;font-weight:normal;font-style:normal;font-size:10px">livingroom</text>
<path d="M303.51,41.779L303.51,48.44L341.87,48.44L341.87,48.44" style="fill:none;stroke:#000000" />
<text x="341.87" y="-48.625" transform="scale(1, -1)"
	style="font-family:Times;font-weight:normal;font-style:normal;font-size:10px">teacher</text>
<path d="M303.51,48.44L303.51,45.109" style="fill:none;stroke:#000000" />
<path d="M263.72,45.109L263.72,70.92L303.51,70.92L303.51,63.427L341.8,63.427L341.8,58.431L378.68,58.431L378.68,55.1L410.58,55.1L410.58,55.1" style="fill:none;stroke:#000000" />
<text x="410.58" y="-55.286" transform="scale(1, -1)"
	style="font-family:Times;font-weight:normal;font-style:normal;font-size:10px">by</text>
<path d="M378.68,55.1L378.68,61.761L410.58,61.761L410.58,61.761" style="fill:none;stroke:#000000" />
<text x="410.58" y="-61.947" transform="scale(1, -1)"
	style="font-family:Times;font-weight:normal;font-style:normal;font-size:10px">utensil</text>
<path d="M378.68,61.761L378.68,58.431" style="fill:none;stroke:#000000" />
<path d="M341.8,58.431L341.8,68.422L378.68,68.422L378.68,68.422" style="fill:none;stroke:#000000" />
<text x="378.68" y="-68.608" transform="scale(1, -1)"
	style="font-family:Times;font-weight:normal;font-style:normal;font-size:10px">fur</text>
<path d="M341.8,68.422L341.8,63.427" style="fill:none;stroke:#000000" />
<path d="M303.51,63.427L303.51,78.414L341.8,78.414L341.8,75.083L372.31,75.083L372.31,75.083" style="fill:none;stroke:#000000" />
<text x="372.31" y="-75.269" transform="scale(1, -1)"
	style="font-family:Times;font-weight:normal;font-style:normal;font-size:10px">pleasure</text>
<path d="M341.8,75.083L341.8,81.744L372.31,81.744L372.31,81.744" style="fill:none;stroke:#000000" />
<text x="372.31" y="-81.93" transform="scale(1, -1)"
	style="font-family:Times;font-weight:normal;font-style:normal;font-size:10px">someone</text>
<path d="M341.8,81.744L341.8,78.414" style="fill:none;stroke:#000000" />
<path d="M303.51,78.414L303.51,70.92" style="fill:none;stroke:#000000" />
<path d="M263.72,70.92L263.72,58.015" style="fill:none;stroke:#000000" />
<path d="M221.52,58.015L221.52,112.97L263.72,112.97L263.72,100.89L303.13,100.89L303.13,91.735L340.9,91.735L340.9,88.405L376.86,88.405L376.86,88.405" style="fill:none;stroke:#000000" />
<text x="376.86" y="-88.59" transform="scale(1, -1)"
	style="font-family:Times;font-weight:normal;font-style:normal;font-size:10px">knife</text>
<path d="M340.9,88.405L340.9,95.066L376.86,95.066L376.86,95.066" style="fill:none;stroke:#000000" />
<text x="376.86" y="-95.251" transform="scale(1, -1)"
	style="font-family:Times;font-weight:normal;font-style:normal;font-size:10px">koolaid</text>
<path d="M340.9,95.066L340.9,91.735" style="fill:none;stroke:#000000" />
<path d="M303.13,91.735L303.13,110.05L340.9,110.05L340.9,105.06L373.09,105.06L373.09,101.73L400.29,101.73L400.29,101.73" style="fill:none;stroke:#000000" />
<text x="400.29" y="-101.91" transform="scale(1, -1)"
	style="font-family:Times;font-weight:normal;font-style:normal;font-size:10px">kitchen</text>
<path d="M373.09,101.73L373.09,108.39L400.29,108.39L400.29,108.39" style="fill:none;stroke:#000000" />
<text x="400.29" y="-108.57" transform="scale(1, -1)"
	style="font-family:Times;font-weight:normal;font-style:normal;font-size:10px">adult</text>
<path d="M373.09,108.39L373.09,105.06" style="fill:none;stroke:#000000" />
<path d="M340.9,105.06L340.9,115.05L373.09,115.05L373.09,115.05" style="fill:none;stroke:#000000" />
<text x="373.09" y="-115.23" transform="scale(1, -1)"
	style="font-family:Times;font-weight:normal;font-style:normal;font-size:10px">icecream</text>
<path d="M340.9,115.05L340.9,110.05" style="fill:none;stroke:#000000" />
<path d="M303.13,110.05L303.13,100.89" style="fill:none;stroke:#000000" />
<path d="M263.72,100.89L263.72,125.04L303.13,125.04L303.13,121.71L333.9,121.71L333.9,121.71" style="fill:none;stroke:#000000" />
<text x="333.9" y="-121.89" transform="scale(1, -1)"
	style="font-family:Times;font-weight:normal;font-style:normal;font-size:10px">spread</text>
<path d="M303.13,121.71L303.13,128.37L333.9,128.37L333.9,128.37" style="fill:none;stroke:#000000" />
<text x="333.9" y="-128.56" transform="scale(1, -1)"
	style="font-family:Times;font-weight:normal;font-style:normal;font-size:10px">ate</text>
<path d="M303.13,128.37L303.13,125.04" style="fill:none;stroke:#000000" />
<path d="M263.72,125.04L263.72,112.97" style="fill:none;stroke:#000000" />
<path d="M221.52,112.97L221.52,85.491" style="fill:none;stroke:#000000" />
<path d="M178.04,85.491L178.04,157.51L221.52,157.51L221.52,145.02L261.33,145.02L261.33,138.36L299.74,138.36L299.74,135.03L332.21,135.03L332.21,135.03" style="fill:none;stroke:#000000" />
<text x="332.21" y="-135.22" transform="scale(1, -1)"
	style="font-family:Times;font-weight:normal;font-style:normal;font-size:10px">was</text>
<path d="M299.74,135.03L299.74,141.69L332.21,141.69L332.21,141.69" style="fill:none;stroke:#000000" />
<text x="332.21" y="-141.88" transform="scale(1, -1)"
	style="font-family:Times;font-weight:normal;font-style:normal;font-size:10px">park</text>
<path d="M299.74,141.69L299.74,138.36" style="fill:none;stroke:#000000" />
<path d="M261.33,138.36L261.33,151.68L299.74,151.68L299.74,148.35L330.52,148.35L330.52,148.35" style="fill:none;stroke:#000000" />
<text x="330.52" y="-148.54" transform="scale(1, -1)"
	style="font-family:Times;font-weight:normal;font-style:normal;font-size:10px">pitcher</text>
<path d="M299.74,148.35L299.74,155.01L330.52,155.01L330.52,155.01" style="fill:none;stroke:#000000" />
<text x="330.52" y="-155.2" transform="scale(1, -1)"
	style="font-family:Times;font-weight:normal;font-style:normal;font-size:10px">child</text>
<path d="M299.74,155.01L299.74,151.68" style="fill:none;stroke:#000000" />
<path d="M261.33,151.68L261.33,145.02" style="fill:none;stroke:#000000" />
<path d="M221.52,145.02L221.52,170L261.33,170L261.33,165.01L295.7,165.01L295.7,161.67L326.54,161.67L326.54,161.67" style="fill:none;stroke:#000000" />
<text x="326.54" y="-161.86" transform="scale(1, -1)"
	style="font-family:Times;font-weight:normal;font-style:normal;font-size:10px">something</text>
<path d="M295.7,161.67L295.7,168.34L326.54,168.34L326.54,168.34" style="fill:none;stroke:#000000" />
<text x="326.54" y="-168.52" transform="scale(1, -1)"
	style="font-family:Times;font-weight:normal;font-style:normal;font-size:10px">kissed</text>
<path d="M295.7,168.34L295.7,165.01" style="fill:none;stroke:#000000" />
<path d="M261.33,165.01L261.33,175L295.7,175L295.7,175" style="fill:none;stroke:#000000" />
<text x="295.7" y="-175.18" transform="scale(1, -1)"
	style="font-family:Times;font-weight:normal;font-style:normal;font-size:10px">finger</text>
<path d="M261.33,175L261.33,170" style="fill:none;stroke:#000000" />
<path d="M221.52,170L221.52,157.51" style="fill:none;stroke:#000000" />
<path d="M178.04,157.51L178.04,121.5" style="fill:none;stroke:#000000" />
<path d="M134.51,121.5L134.51,194.15L178.04,194.15L178.04,184.99L217.8,184.99L217.8,181.66L254.8,181.66L254.8,181.66" style="fill:none;stroke:#000000" />
<text x="254.8" y="-181.84" transform="scale(1, -1)"
	style="font-family:Times;font-weight:normal;font-style:normal;font-size:10px">with</text>
<path d="M217.8,181.66L217.8,188.32L254.8,188.32L254.8,188.32" style="fill:none;stroke:#000000" />
<text x="254.8" y="-188.5" transform="scale(1, -1)"
	style="font-family:Times;font-weight:normal;font-style:normal;font-size:10px">drove</text>
<path d="M217.8,188.32L217.8,184.99" style="fill:none;stroke:#000000" />
<path d="M178.04,184.99L178.04,203.31L217.8,203.31L217.8,198.31L251.85,198.31L251.85,194.98L282.65,194.98L282.65,194.98" style="fill:none;stroke:#000000" />
<text x="282.65" y="-195.16" transform="scale(1, -1)"
	style="font-family:Times;font-weight:normal;font-style:normal;font-size:10px">start</text>
<path d="M251.85,194.98L251.85,201.64L282.65,201.64L282.65,201.64" style="fill:none;stroke:#000000" />
<text x="282.65" y="-201.83" transform="scale(1, -1)"
	style="font-family:Times;font-weight:normal;font-style:normal;font-size:10px">in</text>
<path d="M251.85,201.64L251.85,198.31" style="fill:none;stroke:#000000" />
<path d="M217.8,198.31L217.8,208.3L251.85,208.3L251.85,208.3" style="fill:none;stroke:#000000" />
<text x="251.85" y="-208.49" transform="scale(1, -1)"
	style="font-family:Times;font-weight:normal;font-style:normal;font-size:10px">rose</text>
<path d="M217.8,208.3L217.8,203.31" style="fill:none;stroke:#000000" />
<path d="M178.04,203.31L178.04,194.15" style="fill:none;stroke:#000000" />
<path d="M134.51,194.15L134.51,157.82" style="fill:none;stroke:#000000" />
<path d="M89.332,157.82L89.332,259.92L134.51,259.92L134.51,237.86L177.97,237.86L177.97,227.45L220.83,227.45L220.83,218.29L262.57,218.29L262.57,214.96L298.56,214.96L298.56,214.96" style="fill:none;stroke:#000000" />
<text x="298.56" y="-215.15" transform="scale(1, -1)"
	style="font-family:Times;font-weight:normal;font-style:normal;font-size:10px">jelly</text>
<path d="M262.57,214.96L262.57,221.62L298.56,221.62L298.56,221.62" style="fill:none;stroke:#000000" />
<text x="298.56" y="-221.81" transform="scale(1, -1)"
	style="font-family:Times;font-weight:normal;font-style:normal;font-size:10px">crackers</text>
<path d="M262.57,221.62L262.57,218.29" style="fill:none;stroke:#000000" />
<path d="M220.83,218.29L220.83,236.61L262.57,236.61L262.57,231.61L297.87,231.61L297.87,228.28L331.85,228.28L331.85,228.28" style="fill:none;stroke:#000000" />
<text x="331.85" y="-228.47" transform="scale(1, -1)"
	style="font-family:Times;font-weight:normal;font-style:normal;font-size:10px">to</text>
<path d="M297.87,228.28L297.87,234.94L331.85,234.94L331.85,234.94" style="fill:none;stroke:#000000" />
<text x="331.85" y="-235.13" transform="scale(1, -1)"
	style="font-family:Times;font-weight:normal;font-style:normal;font-size:10px">bat</text>
<path d="M297.87,234.94L297.87,231.61" style="fill:none;stroke:#000000" />
<path d="M262.57,231.61L262.57,241.61L297.87,241.61L297.87,241.61" style="fill:none;stroke:#000000" />
<text x="297.87" y="-241.79" transform="scale(1, -1)"
	style="font-family:Times;font-weight:normal;font-style:normal;font-size:10px">food</text>
<path d="M262.57,241.61L262.57,236.61" style="fill:none;stroke:#000000" />
<path d="M220.83,236.61L220.83,227.45" style="fill:none;stroke:#000000" />
<path d="M177.97,227.45L177.97,248.27L220.83,248.27L220.83,248.27" style="fill:none;stroke:#000000" />
<text x="220.83" y="-248.45" transform="scale(1, -1)"
	style="font-family:Times;font-weight:normal;font-style:normal;font-size:10px">gave</text>
<path d="M177.97,248.27L177.97,237.86" style="fill:none;stroke:#000000" />
<path d="M134.51,237.86L134.51,281.99L177.97,281.99L177.97,269.08L219.57,269.08L219.57,263.25L259.93,263.25L259.93,258.26L295.54,258.26L295.54,254.93L328.04,254.93L328.04,254.93" style="fill:none;stroke:#000000" />
<text x="328.04" y="-255.11" transform="scale(1, -1)"
	style="font-family:Times;font-weight:normal;font-style:normal;font-size:10px">shed</text>
<path d="M295.54,254.93L295.54,261.59L328.04,261.59L328.04,261.59" style="fill:none;stroke:#000000" />
<text x="328.04" y="-261.77" transform="scale(1, -1)"
	style="font-family:Times;font-weight:normal;font-style:normal;font-size:10px">stirred</text>
<path d="M295.54,261.59L295.54,258.26" style="fill:none;stroke:#000000" />
<path d="M259.93,258.26L259.93,268.25L295.54,268.25L295.54,268.25" style="fill:none;stroke:#000000" />
<text x="295.54" y="-268.43" transform="scale(1, -1)"
	style="font-family:Times;font-weight:normal;font-style:normal;font-size:10px">gusto</text>
<path d="M259.93,268.25L259.93,263.25" style="fill:none;stroke:#000000" />
<path d="M219.57,263.25L219.57,274.91L259.93,274.91L259.93,274.91" style="fill:none;stroke:#000000" />
<text x="259.93" y="-275.1" transform="scale(1, -1)"
	style="font-family:Times;font-weight:normal;font-style:normal;font-size:10px">soup</text>
<path d="M219.57,274.91L219.57,269.08" style="fill:none;stroke:#000000" />
<path d="M177.97,269.08L177.97,294.89L219.57,294.89L219.57,284.9L258.74,284.9L258.74,281.57L295.1,281.57L295.1,281.57" style="fill:none;stroke:#000000" />
<text x="295.1" y="-281.76" transform="scale(1, -1)"
	style="font-family:Times;font-weight:normal;font-style:normal;font-size:10px">ball</text>
<path d="M258.74,281.57L258.74,288.23L295.1,288.23L295.1,288.23" style="fill:none;stroke:#000000" />
<text x="295.1" y="-288.42" transform="scale(1, -1)"
	style="font-family:Times;font-weight:normal;font-style:normal;font-size:10px">icedtea</text>
<path d="M258.74,288.23L258.74,284.9" style="fill:none;stroke:#000000" />
<path d="M219.57,284.9L219.57,304.88L258.74,304.88L258.74,298.22L294.29,298.22L294.29,294.89L326.74,294.89L326.74,294.89" style="fill:none;stroke:#000000" />
<text x="326.74" y="-295.08" transform="scale(1, -1)"
	style="font-family:Times;font-weight:normal;font-style:normal;font-size:10px">bus</text>
<path d="M294.29,294.89L294.29,301.55L326.74,301.55L326.74,301.55" style="fill:none;stroke:#000000" />
<text x="326.74" y="-301.74" transform="scale(1, -1)"
	style="font-family:Times;font-weight:normal;font-style:normal;font-size:10px">threw</text>
<path d="M294.29,301.55L294.29,298.22" style="fill:none;stroke:#000000" />
<path d="M258.74,298.22L258.74,311.54L294.29,311.54L294.29,308.21L324.8,308.21L324.8,308.21" style="fill:none;stroke:#000000" />
<text x="324.8" y="-308.4" transform="scale(1, -1)"
	style="font-family:Times;font-weight:normal;font-style:normal;font-size:10px">daintiness</text>
<path d="M294.29,308.21L294.29,314.88L324.8,314.88L324.8,314.88" style="fill:none;stroke:#000000" />
<text x="324.8" y="-315.06" transform="scale(1, -1)"
	style="font-family:Times;font-weight:normal;font-style:normal;font-size:10px">schoolgirl</text>
<path d="M294.29,314.88L294.29,311.54" style="fill:none;stroke:#000000" />
<path d="M258.74,311.54L258.74,304.88" style="fill:none;stroke:#000000" />
<path d="M219.57,304.88L219.57,294.89" style="fill:none;stroke:#000000" />
<path d="M177.97,294.89L177.97,281.99" style="fill:none;stroke:#000000" />
<path d="M134.51,281.99L134.51,259.92" style="fill:none;stroke:#000000" />
<path d="M89.332,259.92L89.332,208.87" style="fill:none;stroke:#000000" />
<path d="M43.105,208.87L43.105,356.61L89.332,356.61L89.332,348.39L133.87,348.39L133.87,341.93L175.78,341.93L175.78,335.69L214.22,335.69L214.22,329.86L246.65,329.86L246.65,324.87L275.73,324.87L275.73,321.54L300.74,321.54L300.74,321.54" style="fill:none;stroke:#000000" />
<text x="300.74" y="-321.72" transform="scale(1, -1)"
	style="font-family:Times;font-weight:normal;font-style:normal;font-size:10px">spoon</text>
<path d="M275.73,321.54L275.73,328.2L300.74,328.2L300.74,328.2" style="fill:none;stroke:#000000" />
<text x="300.74" y="-328.38" transform="scale(1, -1)"
	style="font-family:Times;font-weight:normal;font-style:normal;font-size:10px">consumed</text>
<path d="M275.73,328.2L275.73,324.87" style="fill:none;stroke:#000000" />
<path d="M246.65,324.87L246.65,334.86L275.73,334.86L275.73,334.86" style="fill:none;stroke:#000000" />
<text x="275.73" y="-335.04" transform="scale(1, -1)"
	style="font-family:Times;font-weight:normal;font-style:normal;font-size:10px">busdriver</text>
<path d="M246.65,334.86L246.65,329.86" style="fill:none;stroke:#000000" />
<path d="M214.22,329.86L214.22,341.52L246.65,341.52L246.65,341.52" style="fill:none;stroke:#000000" />
<text x="246.65" y="-341.7" transform="scale(1, -1)"
	style="font-family:Times;font-weight:normal;font-style:normal;font-size:10px">hit</text>
<path d="M214.22,341.52L214.22,335.69" style="fill:none;stroke:#000000" />
<path d="M175.78,335.69L175.78,348.18L214.22,348.18L214.22,348.18" style="fill:none;stroke:#000000" />
<text x="214.22" y="-348.36" transform="scale(1, -1)"
	style="font-family:Times;font-weight:normal;font-style:normal;font-size:10px">drank</text>
<path d="M175.78,348.18L175.78,341.93" style="fill:none;stroke:#000000" />
<path d="M133.87,341.93L133.87,354.84L175.78,354.84L175.78,354.84" style="fill:none;stroke:#000000" />
<text x="175.78" y="-355.03" transform="scale(1, -1)"
	style="font-family:Times;font-weight:normal;font-style:normal;font-size:10px">spot</text>
<path d="M133.87,354.84L133.87,348.39" style="fill:none;stroke:#000000" />
<path d="M89.332,348.39L89.332,364.83L133.87,364.83L133.87,361.5L170.61,361.5L170.61,361.5" style="fill:none;stroke:#000000" />
<text x="170.61" y="-361.69" transform="scale(1, -1)"
	style="font-family:Times;font-weight:normal;font-style:normal;font-size:10px">steak</text>
<path d="M133.87,361.5L133.87,368.16L170.61,368.16L170.61,368.16" style="fill:none;stroke:#000000" />
<text x="170.61" y="-368.35" transform="scale(1, -1)"
	style="font-family:Times;font-weight:normal;font-style:normal;font-size:10px">dog</text>
<path d="M133.87,368.16L133.87,364.83" style="fill:none;stroke:#000000" />
<path d="M89.332,364.83L89.332,356.61" style="fill:none;stroke:#000000" />
<path d="M43.105,356.61L43.105,282.74L43.105,282.74L43.105,282.74" style="fill:none;stroke:#000000" />
<path d="M417.25,372.1L437.25,372.1" style="fill:none;stroke:#000000" />
<text x="405.91" y="-366.46" transform="scale(1, -1)"
	style="font-family:Helvetica;font-weight:normal;font-style:normal;font-size:12px">Y</text>
</g>
</svg>
