<?xml version="1.0"?>
<!-- Generated by SVGo and Plotinum VG -->
<svg width="437.25pt" height="393.38pt" viewBox="0 0 437.25 393.38"
	xmlns="http://www.w3.org/2000/svg"
	xmlns:xlink="http://www.w3.org/1999/xlink">
<g transform="scale(1, -1) translate(0, -393.38)">
<text x="111.8" y="-381.86" transform="scale(1, -1)"
	style="font-family:Helvetica;font-weight:normal;font-style:normal;font-size:12px">Cluster Plot of: SentProbeTrlLog Gestalt</text>
<text x="218.12" y="-3.8789" transform="scale(1, -1)"
	style="font-family:Helvetica;font-weight:normal;font-style:normal;font-size:12px">X</text>
<text x="40.325" y="-15.599" transform="scale(1, -1)"
	style="font-family:Helvetica;font-weight:normal;font-style:normal;font-size:10px">0</text>
<text x="211.42" y="-15.599" transform="scale(1, -1)"
	style="font-family:Helvetica;font-weight:normal;font-style:normal;font-size:10px">10</text>
<text x="385.29" y="-15.599" transform="scale(1, -1)"
	style="font-family:Helvetica;font-weight:normal;font-style:normal;font-size:10px">20</text>
<path d="M43.105,25.198L43.105,33.198" style="fill:none;stroke:#000000;stroke-width:0.5" />
<path d="M216.98,25.198L216.98,33.198" style="fill:none;stroke:#000000;stroke-width:0.5" />
<path d="M390.85,25.198L390.85,33.198" style="fill:none;stroke:#000000;stroke-width:0.5" />
<path d="M77.88,29.198L77.88,33.198" style="fill:none;stroke:#000000;stroke-width:0.5" />
<path d="M112.65,29.198L112.65,33.198" style="fill:none;stroke:#000000;stroke-width:0.5" />
<path d="M147.43,29.198L147.43,33.198" style="fill:none;stroke:#000000;stroke-width:0.5" />
<path d="M182.2,29.198L182.2,33.198" style="fill:none;stroke:#000000;stroke-width:0.5" />
<path d="M251.75,29.198L251.75,33.198" style="fill:none;stroke:#000000;stroke-width:0.5" />
<path d="M286.53,29.198L286.53,33.198" style="fill:none;stroke:#000000;stroke-width:0.5" />
<path d="M321.3,29.198L321.3,33.198" style="fill:none;stroke:#000000;stroke-width:0.5" />
<path d="M356.07,29.198L356.07,33.198" style="fill:none;stroke:#000000;stroke-width:0.5" />
<path d="M43.105,33.198L401.14,33.198" style="fill:none;stroke:#000000;stroke-width:0.5" />
<g transform="rotate(90)">
<text x="199.3" y="11.52" transform="scale(1, -1)"
	style="font-family:Helvetica;font-weight:normal;font-style:normal;font-size:12px">Y</text>
</g>
<text x="20.96" y="-33.749" transform="scale(1, -1)"
	style="font-family:Helvetica;font-weight:normal;font-style:normal;font-size:10px">0</text>
<text x="20.96" y="-140.11" transform="scale(1, -1)"
	style="font-family:Helvetica;font-weight:normal;font-style:normal;font-size:10px">5</text>
<text x="15.398" y="-246.47" transform="scale(1, -1)"
	style="font-family:Helvetica;font-weight:normal;font-style:normal;font-size:10px">10</text>
<text x="15.398" y="-352.83" transform="scale(1, -1)"
	style="font-family:Helvetica;font-weight:normal;font-style:normal;font-size:10px">15</text>
<path d="M29.3,38.448L37.3,38.448" style="fill:none;stroke:#000000;stroke-width:0.5" />
<path d="M29.3,144.81L37.3,144.81" style="fill:none;stroke:#000000;stroke-width:0.5" />
<path d="M29.3,251.17L37.3,251.17" style="fill:none;stroke:#000000;stroke-width:0.5" />
<path d="M29.3,357.53L37.3,357.53" style="fill:none;stroke:#000000;stroke-width:0.5" />
<path d="M33.3,59.72L37.3,59.72" style="fill:none;stroke:#000000;stroke-width:0.5" />
<path d="M33.3,80.992L37.3,80.992" style="fill:none;stroke:#000000;stroke-width:0.5" />
<path d="M33.3,102.26L37.3,102.26" style="fill:none;stroke:#000000;stroke-width:0.5" />
<path d="M33.3,123.54L37.3,123.54" style="fill:none;stroke:#000000;stroke-width:0.5" />
<path d="M33.3,166.08L37.3,166.08" style="fill:none;stroke:#000000;stroke-width:0.5" />
<path d="M33.3,187.35L37.3,187.35" style="fill:none;stroke:#000000;stroke-width:0.5" />
<path d="M33.3,208.62L37.3,208.62" style="fill:none;stroke:#000000;stroke-width:0.5" />
<path d="M33.3,229.9L37.3,229.9" style="fill:none;stroke:#000000;stroke-width:0.5" />
<path d="M33.3,272.44L37.3,272.44" style="fill:none;stroke:#000000;stroke-width:0.5" />
<path d="M33.3,293.71L37.3,293.71" style="fill:none;stroke:#000000;stroke-width:0.5" />
<path d="M33.3,314.98L37.3,314.98" style="fill:none;stroke:#000000;stroke-width:0.5" />
<path d="M33.3,336.25L37.3,336.25" style="fill:none;stroke:#000000;stroke-width:0.5" />
<path d="M37.3,38.448L37.3,368.16" style="fill:none;stroke:#000000;stroke-width:0.5" />
<path d="M43.105,269.95L43.105,269.95L43.105,191.67L188.01,191.67L188.01,140.15L262.48,140.15L262.48,114.23L334.02,114.23L334.02,94.287L343.38,94.287L343.38,75.674L358.17,75.674L358.17,59.72L377.65,59.72L377.65,49.084L401.14,49.084L401.14,49.084" style="fill:none;stroke:#000000" />
<text x="401.14" y="-49.27" transform="scale(1, -1)"
	style="font-family:Times;font-weight:normal;font-style:normal;font-size:10px">sc_at_so</text>
<path d="M377.65,49.084L377.65,70.356L401.14,70.356L401.14,70.356" style="fill:none;stroke:#000000" />
<text x="401.14" y="-70.542" transform="scale(1, -1)"
	style="font-family:Times;font-weight:normal;font-style:normal;font-size:10px">bu_at_so</text>
<path d="M377.65,70.356L377.65,59.72" style="fill:none;stroke:#000000" />
<path d="M358.17,59.72L358.17,91.628L377.65,91.628L377.65,91.628" style="fill:none;stroke:#000000" />
<text x="377.65" y="-91.813" transform="scale(1, -1)"
	style="font-family:Times;font-weight:normal;font-style:normal;font-size:10px">sc_at_so</text>
<path d="M358.17,91.628L358.17,75.674" style="fill:none;stroke:#000000" />
<path d="M343.38,75.674L343.38,112.9L358.17,112.9L358.17,112.9" style="fill:none;stroke:#000000" />
<text x="358.17" y="-113.09" transform="scale(1, -1)"
	style="font-family:Times;font-weight:normal;font-style:normal;font-size:10px">te_at_so</text>
<path d="M343.38,112.9L343.38,94.287" style="fill:none;stroke:#000000" />
<path d="M334.02,94.287L334.02,134.17L343.38,134.17L343.38,134.17" style="fill:none;stroke:#000000" />
<text x="343.38" y="-134.36" transform="scale(1, -1)"
	style="font-family:Times;font-weight:normal;font-style:normal;font-size:10px">te_at_so</text>
<path d="M334.02,134.17L334.02,114.23" style="fill:none;stroke:#000000" />
<path d="M262.48,114.23L262.48,166.08L334.02,166.08L334.02,155.44L341.18,155.44L341.18,155.44" style="fill:none;stroke:#000000" />
<text x="341.18" y="-155.63" transform="scale(1, -1)"
	style="font-family:Times;font-weight:normal;font-style:normal;font-size:10px">bu_at_st</text>
<path d="M334.02,155.44L334.02,176.72L341.18,176.72L341.18,176.72" style="fill:none;stroke:#000000" />
<text x="341.18" y="-176.9" transform="scale(1, -1)"
	style="font-family:Times;font-weight:normal;font-style:normal;font-size:10px">bu_at_st</text>
<path d="M334.02,176.72L334.02,166.08" style="fill:none;stroke:#000000" />
<path d="M262.48,166.08L262.48,140.15" style="fill:none;stroke:#000000" />
<path d="M188.01,140.15L188.01,243.19L262.48,243.19L262.48,224.58L270.15,224.58L270.15,208.62L283.06,208.62L283.06,197.99L300.43,197.99L300.43,197.99" style="fill:none;stroke:#000000" />
<text x="300.43" y="-198.17" transform="scale(1, -1)"
	style="font-family:Times;font-weight:normal;font-style:normal;font-size:10px">pi_st_ko</text>
<path d="M283.06,197.99L283.06,219.26L300.43,219.26L300.43,219.26" style="fill:none;stroke:#000000" />
<text x="300.43" y="-219.44" transform="scale(1, -1)"
	style="font-family:Times;font-weight:normal;font-style:normal;font-size:10px">pi_st_ko</text>
<path d="M283.06,219.26L283.06,208.62" style="fill:none;stroke:#000000" />
<path d="M270.15,208.62L270.15,240.53L283.06,240.53L283.06,240.53" style="fill:none;stroke:#000000" />
<text x="283.06" y="-240.72" transform="scale(1, -1)"
	style="font-family:Times;font-weight:normal;font-style:normal;font-size:10px">te_st_ko</text>
<path d="M270.15,240.53L270.15,224.58" style="fill:none;stroke:#000000" />
<path d="M262.48,224.58L262.48,261.8L270.15,261.8L270.15,261.8" style="fill:none;stroke:#000000" />
<text x="270.15" y="-261.99" transform="scale(1, -1)"
	style="font-family:Times;font-weight:normal;font-style:normal;font-size:10px">pi_st_ko</text>
<path d="M262.48,261.8L262.48,243.19" style="fill:none;stroke:#000000" />
<path d="M188.01,243.19L188.01,191.67" style="fill:none;stroke:#000000" />
<path d="M43.105,191.67L43.105,348.22L188.01,348.22L188.01,328.28L194.91,328.28L194.91,309.66L207.54,309.66L207.54,293.71L225.02,293.71L225.02,283.07L246.64,283.07L246.64,283.07" style="fill:none;stroke:#000000" />
<text x="246.64" y="-283.26" transform="scale(1, -1)"
	style="font-family:Times;font-weight:normal;font-style:normal;font-size:10px">sc_dr_ic</text>
<path d="M225.02,283.07L225.02,304.35L246.64,304.35L246.64,304.35" style="fill:none;stroke:#000000" />
<text x="246.64" y="-304.53" transform="scale(1, -1)"
	style="font-family:Times;font-weight:normal;font-style:normal;font-size:10px">sc_dr_ic</text>
<path d="M225.02,304.35L225.02,293.71" style="fill:none;stroke:#000000" />
<path d="M207.54,293.71L207.54,325.62L225.02,325.62L225.02,325.62" style="fill:none;stroke:#000000" />
<text x="225.02" y="-325.8" transform="scale(1, -1)"
	style="font-family:Times;font-weight:normal;font-style:normal;font-size:10px">bu_dr_ic</text>
<path d="M207.54,325.62L207.54,309.66" style="fill:none;stroke:#000000" />
<path d="M194.91,309.66L194.91,346.89L207.54,346.89L207.54,346.89" style="fill:none;stroke:#000000" />
<text x="207.54" y="-347.08" transform="scale(1, -1)"
	style="font-family:Times;font-weight:normal;font-style:normal;font-size:10px">pi_dr_ic</text>
<path d="M194.91,346.89L194.91,328.28" style="fill:none;stroke:#000000" />
<path d="M188.01,328.28L188.01,368.16L194.91,368.16L194.91,368.16" style="fill:none;stroke:#000000" />
<text x="194.91" y="-368.35" transform="scale(1, -1)"
	style="font-family:Times;font-weight:normal;font-style:normal;font-size:10px">pi_dr_ic</text>
<path d="M188.01,368.16L188.01,348.22" style="fill:none;stroke:#000000" />
<path d="M43.105,348.22L43.105,269.95L43.105,269.95L43.105,269.95" style="fill:none;stroke:#000000" />
<path d="M417.25,372.1L437.25,372.1" style="fill:none;stroke:#000000" />
<text x="405.91" y="-366.46" transform="scale(1, -1)"
	style="font-family:Helvetica;font-weight:normal;font-style:normal;font-size:12px">Y</text>
</g>
</svg>
